<?xml version="1.0" encoding="UTF-8" standalone="no"?>
<svg
   xmlns:dc="http://purl.org/dc/elements/1.1/"
   xmlns:cc="http://creativecommons.org/ns#"
   xmlns:rdf="http://www.w3.org/1999/02/22-rdf-syntax-ns#"
   xmlns:svg="http://www.w3.org/2000/svg"
   xmlns="http://www.w3.org/2000/svg"
   xmlns:sodipodi="http://sodipodi.sourceforge.net/DTD/sodipodi-0.dtd"
   xmlns:inkscape="http://www.inkscape.org/namespaces/inkscape"
   width="18.042311mm"
   height="19.771656mm"
   viewBox="0 0 18.042311 19.771656"
   version="1.1"
   id="svg1506"
   inkscape:version="1.0.2 (e86c8708, 2021-01-15)"
   sodipodi:docname="flower.svg">
  <defs
     id="defs1500" />
  <sodipodi:namedview
     id="base"
     pagecolor="#ffffff"
     bordercolor="#666666"
     borderopacity="1.0"
     inkscape:pageopacity="0.0"
     inkscape:pageshadow="2"
     inkscape:zoom="2.8"
     inkscape:cx="76.418356"
     inkscape:cy="65.446841"
     inkscape:document-units="mm"
     inkscape:current-layer="g901"
     inkscape:document-rotation="0"
     showgrid="false"
     inkscape:window-width="1920"
     inkscape:window-height="1027"
     inkscape:window-x="0"
     inkscape:window-y="25"
     inkscape:window-maximized="1" />
  <metadata
     id="metadata1503">
    <rdf:RDF>
      <cc:Work
         rdf:about="">
        <dc:format>image/svg+xml</dc:format>
        <dc:type
           rdf:resource="http://purl.org/dc/dcmitype/StillImage" />
        <dc:title></dc:title>
      </cc:Work>
    </rdf:RDF>
  </metadata>
  <g
     inkscape:label="Layer 1"
     inkscape:groupmode="layer"
     id="layer1"
     transform="translate(59.947246,-95.338112)">
    <g
       id="g901"
       transform="matrix(0.07444358,0,0,0.07444358,-28.226732,86.892452)">
      <path
         id="path837"
         style="fill:#d3072b;fill-opacity:1;stroke-width:0.0744435"
         d="m -182.62891,360.33984 c -0.76977,-0.0323 -1.54505,0.0502 -2.26757,0.25 -1.47345,0.40755 -2.77317,1.19876 -3.84375,2.33985 -0.46278,0.49325 -1.28724,1.81485 -1.54493,2.47656 -0.41417,1.06356 -0.62377,2.33227 -0.58007,3.50195 0.029,0.77674 -0.0395,0.43001 2.14257,11.16407 0.90979,4.47532 1.67269,8.14094 1.69336,8.14648 0.0315,0.008 15.0742,-4.05517 17.40235,-4.70117 1.29643,-0.35973 2.41138,-0.95463 3.38867,-1.8086 0.71472,-0.62453 1.05568,-1.04134 1.62109,-1.97851 0.42427,-0.70323 0.54559,-0.95613 0.73438,-1.52539 1.02331,-3.08584 0.24373,-6.23252 -2.10938,-8.51563 -0.54389,-0.52772 -2.00691,-1.44358 -2.71093,-1.69726 -1.66625,-0.6004 -3.16746,-0.66421 -4.97266,-0.21289 l -1.07227,0.26758 -0.22656,-1.04883 c -0.2333,-1.07858 -0.44621,-1.6963 -0.82031,-2.37696 -0.93293,-1.6974 -2.63343,-3.12004 -4.5957,-3.84375 -0.70421,-0.25972 -1.46852,-0.40519 -2.23829,-0.4375 z m -12.82226,0.54883 c -2.48203,0.48202 -4.51864,1.60568 -6.10742,3.375 -2.18368,2.43183 -3.27539,5.68433 -3.27539,9.75391 v 1.11523 c 0,0.19852 0.0246,0.3726 0.0742,0.52149 l 0.0742,1.26562 c -3.67254,-2.63034 -6.97228,-3.94531 -9.90039,-3.94531 -2.28294,0 -4.46636,0.76814 -6.55078,2.30664 -1.98516,1.43924 -3.44962,3.32564 -4.39258,5.6582 -0.6948,1.63776 -1.04297,3.27631 -1.04297,4.91407 0,5.01253 2.87976,8.8345 8.63672,11.46484 l 1.11524,0.51953 c -6.50141,2.97774 -9.75196,6.99838 -9.75196,12.06055 0,3.4244 1.19203,6.4271 3.57422,9.00781 2.3822,2.58071 5.21081,3.87109 8.48633,3.87109 2.97774,0 5.93126,-1.06712 8.85938,-3.20117 l 0.96679,-0.74414 c -0.0992,0.99258 -0.14843,2.18265 -0.14843,3.57227 0,3.72218 1.16548,6.76176 3.49804,9.11914 2.33257,2.35737 5.28609,3.53711 8.85938,3.53711 3.9207,0 6.96027,-1.22892 9.11914,-3.68555 2.15886,-2.45665 3.23828,-5.6703 3.23828,-9.64062 v -2.90235 c 3.67255,2.63034 6.94768,3.94531 9.82617,3.94531 3.22589,0 6.01762,-1.30268 8.375,-3.9082 2.35738,-2.60553 3.53711,-5.59593 3.53711,-8.9707 0,-5.06217 -2.87779,-8.90872 -8.63476,-11.53906 l -1.11719,-0.52149 c 6.50141,-2.97774 9.75195,-6.97184 9.75195,-11.98437 0,-0.51622 -0.0301,-1.02511 -0.0898,-1.52735 -1.16618,0.99034 -2.48969,1.79848 -3.90235,2.40039 -0.6113,5.62643 -7.24603,8.98397 -19.90429,10.07032 v 2.1582 c 6.60066,0.54592 11.57582,1.73794 14.92578,3.57422 3.34996,1.83627 5.02539,4.29213 5.02539,7.36914 0,2.2333 -0.80698,4.28149 -2.41992,6.14258 -1.61295,1.86109 -3.48705,2.79101 -5.6211,2.79101 -5.01253,0 -10.34619,-4.21931 -16.0039,-12.65625 l -1.93555,1.11719 c 2.82886,5.75697 4.24219,10.62147 4.24219,14.5918 0,6.15399 -2.80403,9.23046 -8.41211,9.23046 -2.67997,0 -4.76504,-0.81927 -6.25391,-2.45703 -1.43924,-1.73702 -2.1582,-3.92044 -2.1582,-6.55078 0,-3.97033 1.41528,-8.9086 4.24414,-14.81445 l -1.93555,-1.11719 c -5.65771,8.43694 -10.99333,12.65625 -16.00586,12.65625 -2.03479,0 -3.88429,-0.88075 -5.54687,-2.64258 -1.66257,-1.76183 -2.49219,-3.85919 -2.49219,-6.29101 0,-6.15401 6.62404,-9.80189 19.875,-10.94336 v -2.1582 c -13.25096,-1.09184 -19.875,-4.73973 -19.875,-10.94336 0,-2.18368 0.79273,-4.21957 2.38086,-6.10547 1.58813,-1.88591 3.47453,-2.82813 5.6582,-2.82813 4.91328,0 10.24889,4.19277 16.00586,12.58008 l 1.93555,-1.04102 c -2.82886,-5.80659 -4.24414,-10.76946 -4.24414,-14.88867 0,-2.63034 0.71896,-4.81376 2.1582,-6.55078 0.75274,-0.82801 1.65961,-1.44608 2.7168,-1.85547 -0.0152,-1.45972 0.16942,-2.88405 0.5625,-4.27539 z"
         transform="matrix(3.5541457,0,0,3.5541457,379.16946,-1167.2256)" />
    </g>
  </g>
</svg>
