<svg xmlns="http://www.w3.org/2000/svg" width="64" height="64" viewBox="-20 151 1331 1081" fill="none">
  <path
    fill="#000000"
    d="M40 852 298 567H45V452H460V552L202 837H475V952H40ZM420 1042H528Q551 1042 564.5 1028Q578 1014 578 987V452H708V996Q708 1071 669 1111.5Q630 1152 555 1152H420ZM563 310Q563 277 586.5 254Q610 231 643 231Q675 231 698.5 254Q722 277 722 310Q722 342 698.5 365.5Q675 389 643 389Q610 389 586.5 365.5Q563 342 563 310ZM816 852 1074 567H821V452H1236V552L978 837H1251V952H816Z"
  />
</svg>
